<?xml version="1.0" standalone="no"?>
<!DOCTYPE svg PUBLIC "-//W3C//DTD SVG 20010904//EN"
 "http://www.w3.org/TR/2001/REC-SVG-20010904/DTD/svg10.dtd">
<svg version="1.0" xmlns="http://www.w3.org/2000/svg"
 width="64.000000pt" height="64.000000pt" viewBox="0 0 64.000000 64.000000"
 preserveAspectRatio="xMidYMid meet">

<g transform="translate(0.000000,64.000000) scale(0.100000,-0.100000)"
fill="#000000" stroke="none">
<path d="M120 580 c0 -5 5 -10 10 -10 6 0 10 5 10 10 0 6 -4 10 -10 10 -5 0
-10 -4 -10 -10z"/>
<path d="M430 581 c0 -6 5 -13 10 -16 6 -3 10 1 10 9 0 9 -4 16 -10 16 -5 0
-10 -4 -10 -9z"/>
<path d="M314 565 c-4 -9 0 -23 9 -32 21 -21 49 -9 45 19 -4 28 -45 38 -54 13z"/>
<path d="M105 490 c-12 -13 -19 -35 -18 -56 2 -66 58 -119 126 -119 37 0 43
-4 135 -112 53 -61 106 -115 116 -119 26 -9 60 30 47 55 -5 9 -59 59 -120 111
-94 80 -110 99 -107 120 6 39 -23 97 -59 120 -43 26 -96 26 -120 0z m35 -39
c-7 -14 -7 -28 0 -47 14 -37 6 -42 -10 -5 -12 30 -6 71 11 71 6 0 6 -7 -1 -19z"/>
<path d="M416 489 c-35 -27 -58 -74 -54 -109 1 -15 -4 -35 -11 -44 -12 -15
-12 -19 3 -34 14 -15 18 -15 26 -3 5 9 26 15 52 16 134 2 183 195 49 195 -24
0 -48 -8 -65 -21z m104 -63 c0 -19 -7 -39 -15 -46 -9 -8 -15 -9 -15 -2 0 6 5
14 11 18 7 4 9 21 6 40 -4 21 -2 32 4 29 5 -4 9 -21 9 -39z"/>
<path d="M74 259 c-10 -17 13 -36 27 -22 12 12 4 33 -11 33 -5 0 -12 -5 -16
-11z"/>
<path d="M208 212 c-74 -63 -92 -97 -63 -119 11 -7 23 -13 29 -13 13 0 136
132 136 146 0 6 -8 18 -18 27 -16 15 -22 12 -84 -41z"/>
<path d="M170 250 c0 -5 5 -10 10 -10 6 0 10 5 10 10 0 6 -4 10 -10 10 -5 0
-10 -4 -10 -10z"/>
<path d="M480 250 c0 -5 5 -10 10 -10 6 0 10 5 10 10 0 6 -4 10 -10 10 -5 0
-10 -4 -10 -10z"/>
<path d="M547 254 c-16 -16 -7 -44 14 -44 15 0 20 5 17 22 -3 22 -19 33 -31
22z"/>
<path d="M356 121 c-4 -5 -2 -12 3 -15 5 -4 12 -2 15 3 4 5 2 12 -3 15 -5 4
-12 2 -15 -3z"/>
<path d="M60 100 c0 -5 5 -10 10 -10 6 0 10 5 10 10 0 6 -4 10 -10 10 -5 0
-10 -4 -10 -10z"/>
<path d="M256 71 c-4 -5 -2 -12 3 -15 5 -4 12 -2 15 3 4 5 2 12 -3 15 -5 4
-12 2 -15 -3z"/>
</g>
</svg>
